<mxfile host="app.diagrams.net" agent="Mozilla/5.0 (Windows NT 10.0; Win64; x64) AppleWebKit/537.36 (KHTML, like Gecko) Chrome/140.0.0.0 Safari/537.36" version="28.2.5">
  <diagram name="Page-1" id="E7uM1S7-dipkyiRRF3xO">
    <mxGraphModel dx="1833" dy="1012" grid="1" gridSize="10" guides="1" tooltips="1" connect="1" arrows="1" fold="1" page="1" pageScale="1" pageWidth="850" pageHeight="1100" math="0" shadow="0">
      <root>
        <mxCell id="0" />
        <mxCell id="1" parent="0" />
        <mxCell id="52leymC3ufOU6Mw8gidE-1" value="" style="rounded=1;whiteSpace=wrap;html=1;" vertex="1" parent="1">
          <mxGeometry x="235" y="320" width="300" height="290" as="geometry" />
        </mxCell>
        <mxCell id="52leymC3ufOU6Mw8gidE-2" value="&lt;font size=&quot;1&quot;&gt;YARN&lt;/font&gt;" style="html=1;dropTarget=0;whiteSpace=wrap;" vertex="1" parent="1">
          <mxGeometry x="265" y="360" width="90" height="60" as="geometry" />
        </mxCell>
        <mxCell id="52leymC3ufOU6Mw8gidE-3" value="" style="shape=module;jettyWidth=8;jettyHeight=4;" vertex="1" parent="52leymC3ufOU6Mw8gidE-2">
          <mxGeometry x="1" width="12" height="20" relative="1" as="geometry">
            <mxPoint x="-19" y="7" as="offset" />
          </mxGeometry>
        </mxCell>
        <mxCell id="52leymC3ufOU6Mw8gidE-4" value="" style="curved=1;endArrow=classic;html=1;rounded=0;exitX=0.461;exitY=0.945;exitDx=0;exitDy=0;exitPerimeter=0;entryX=0.5;entryY=0;entryDx=0;entryDy=0;strokeColor=light-dark(#000000,#00CC66);" edge="1" parent="1" target="52leymC3ufOU6Mw8gidE-2">
          <mxGeometry width="50" height="50" relative="1" as="geometry">
            <mxPoint x="305" y="271" as="sourcePoint" />
            <mxPoint x="324" y="340" as="targetPoint" />
            <Array as="points">
              <mxPoint x="324" y="300" />
            </Array>
          </mxGeometry>
        </mxCell>
        <mxCell id="52leymC3ufOU6Mw8gidE-5" value="&lt;font style=&quot;font-weight: normal;&quot; size=&quot;1&quot;&gt;&quot;Get me all purchases the shopper has made since 2015. I want a table of rating, and total&quot;&lt;/font&gt;" style="text;html=1;align=center;verticalAlign=middle;whiteSpace=wrap;rounded=0;fontStyle=1" vertex="1" parent="1">
          <mxGeometry x="315" y="280" width="190" height="30" as="geometry" />
        </mxCell>
        <mxCell id="52leymC3ufOU6Mw8gidE-6" value="&lt;font style=&quot;font-size: 10px;&quot;&gt;Figures out where to run containers based on the storage of nodes and availability of resources.&lt;/font&gt;" style="text;html=1;align=center;verticalAlign=middle;whiteSpace=wrap;rounded=0;" vertex="1" parent="1">
          <mxGeometry x="365" y="335" width="150" height="80" as="geometry" />
        </mxCell>
        <mxCell id="52leymC3ufOU6Mw8gidE-7" value="&lt;font size=&quot;1&quot;&gt;MapReduce Job&lt;/font&gt;" style="html=1;dropTarget=0;whiteSpace=wrap;" vertex="1" parent="1">
          <mxGeometry x="265" y="460" width="90" height="30" as="geometry" />
        </mxCell>
        <mxCell id="52leymC3ufOU6Mw8gidE-8" value="" style="curved=1;endArrow=classic;html=1;rounded=0;exitX=0.5;exitY=1;exitDx=0;exitDy=0;entryX=0.5;entryY=0;entryDx=0;entryDy=0;" edge="1" parent="1" source="52leymC3ufOU6Mw8gidE-13" target="52leymC3ufOU6Mw8gidE-7">
          <mxGeometry width="50" height="50" relative="1" as="geometry">
            <mxPoint x="295" y="410" as="sourcePoint" />
            <mxPoint x="300" y="499" as="targetPoint" />
            <Array as="points">
              <mxPoint x="295" y="440" />
            </Array>
          </mxGeometry>
        </mxCell>
        <mxCell id="52leymC3ufOU6Mw8gidE-9" style="edgeStyle=orthogonalEdgeStyle;rounded=0;orthogonalLoop=1;jettySize=auto;html=1;exitX=0.5;exitY=1;exitDx=0;exitDy=0;" edge="1" parent="1" source="52leymC3ufOU6Mw8gidE-7" target="52leymC3ufOU6Mw8gidE-7">
          <mxGeometry relative="1" as="geometry" />
        </mxCell>
        <mxCell id="52leymC3ufOU6Mw8gidE-10" value="&lt;font style=&quot;font-size: 10px;&quot;&gt;The job has been split up into pieces, and is processed in parallel&lt;/font&gt;" style="text;html=1;align=center;verticalAlign=middle;whiteSpace=wrap;rounded=0;" vertex="1" parent="1">
          <mxGeometry x="365" y="415" width="150" height="80" as="geometry" />
        </mxCell>
        <mxCell id="52leymC3ufOU6Mw8gidE-11" value="&lt;font size=&quot;1&quot;&gt;HDFS&lt;/font&gt;" style="html=1;dropTarget=0;whiteSpace=wrap;" vertex="1" parent="1">
          <mxGeometry x="415" y="495" width="90" height="30" as="geometry" />
        </mxCell>
        <mxCell id="52leymC3ufOU6Mw8gidE-12" value="" style="curved=1;endArrow=classic;html=1;rounded=0;exitX=1;exitY=0.5;exitDx=0;exitDy=0;entryX=0;entryY=0.5;entryDx=0;entryDy=0;" edge="1" parent="1" source="52leymC3ufOU6Mw8gidE-7" target="52leymC3ufOU6Mw8gidE-11">
          <mxGeometry width="50" height="50" relative="1" as="geometry">
            <mxPoint x="305" y="570" as="sourcePoint" />
            <mxPoint x="305" y="620" as="targetPoint" />
            <Array as="points">
              <mxPoint x="375" y="500" />
            </Array>
          </mxGeometry>
        </mxCell>
        <mxCell id="52leymC3ufOU6Mw8gidE-13" value="&lt;font size=&quot;1&quot;&gt;App Master&lt;/font&gt;" style="html=1;dropTarget=0;whiteSpace=wrap;" vertex="1" parent="1">
          <mxGeometry x="265" y="400" width="60" height="20" as="geometry" />
        </mxCell>
        <mxCell id="52leymC3ufOU6Mw8gidE-14" value="" style="curved=1;endArrow=classic;html=1;rounded=0;exitX=0.381;exitY=1.025;exitDx=0;exitDy=0;entryX=0.25;entryY=1;entryDx=0;entryDy=0;exitPerimeter=0;" edge="1" parent="1" source="52leymC3ufOU6Mw8gidE-7" target="52leymC3ufOU6Mw8gidE-13">
          <mxGeometry width="50" height="50" relative="1" as="geometry">
            <mxPoint x="255" y="450" as="sourcePoint" />
            <mxPoint x="270" y="490" as="targetPoint" />
            <Array as="points">
              <mxPoint x="280" y="520" />
              <mxPoint x="235" y="470" />
            </Array>
          </mxGeometry>
        </mxCell>
        <mxCell id="52leymC3ufOU6Mw8gidE-15" value="" style="curved=1;endArrow=classic;html=1;rounded=0;" edge="1" parent="1" source="52leymC3ufOU6Mw8gidE-2">
          <mxGeometry width="50" height="50" relative="1" as="geometry">
            <mxPoint x="245" y="280" as="sourcePoint" />
            <mxPoint x="285" y="270" as="targetPoint" />
            <Array as="points">
              <mxPoint x="275" y="309" />
            </Array>
          </mxGeometry>
        </mxCell>
        <mxCell id="52leymC3ufOU6Mw8gidE-16" value="&lt;font style=&quot;font-size: 10px;&quot;&gt;The storage component of Hadoop&lt;/font&gt;" style="text;html=1;align=center;verticalAlign=middle;whiteSpace=wrap;rounded=0;" vertex="1" parent="1">
          <mxGeometry x="430" y="540" width="60" height="30" as="geometry" />
        </mxCell>
        <mxCell id="52leymC3ufOU6Mw8gidE-17" value="&lt;font style=&quot;font-size: 9px;&quot;&gt;Result&lt;/font&gt;" style="text;html=1;align=center;verticalAlign=middle;whiteSpace=wrap;rounded=0;" vertex="1" parent="1">
          <mxGeometry x="230" y="280" width="60" height="30" as="geometry" />
        </mxCell>
      </root>
    </mxGraphModel>
  </diagram>
</mxfile>
